<svg width="453" height="100" viewBox="0 0 453 100" fill="none" xmlns="http://www.w3.org/2000/svg">
<g filter="url(#filter0_d)">
<path d="M18.6699 72.2754C18.1719 71.4258 17.9814 70.6055 18.0986 69.8145C18.2451 68.9941 18.6406 67.9395 19.2852 66.6504C19.9297 65.332 20.8086 63.6914 21.9219 61.7285L25.7891 55.1367L30.5352 47.3145L35.8965 38.877L41.5215 30.4395C34.4609 32.1973 29.0703 34.292 25.3496 36.7236C24.7344 37.1338 24.207 37.5586 23.7676 37.998L22.2734 39.4922C21.3652 40.4004 20.4717 40.8545 19.5928 40.8545C18.7139 40.8545 18.0254 40.752 17.5273 40.5469C17.0586 40.3125 16.6777 40.0195 16.3848 39.668C15.6523 38.8184 15.5205 37.8809 15.9893 36.8555C17.249 32.8125 19.0508 28.6816 21.3945 24.4629C22.6836 22.1191 23.709 20.7715 24.4707 20.4199C30.0371 18.0176 41.6387 16.2744 59.2754 15.1904C65.0176 14.8389 71.0527 14.6631 77.3809 14.6631C81.5117 14.6631 85.4375 16.1426 89.1582 19.1016C93.3184 22.4707 95.3984 26.6895 95.3984 31.7578C95.3984 38.3789 89.7148 44.6484 78.3477 50.5664C72.0488 53.877 66.1309 56.1914 60.5938 57.5098C59.1582 57.832 58.0449 57.9932 57.2539 57.9932C56.4922 57.9932 55.6133 57.8906 54.6172 57.6855C53.6504 57.4805 52.7715 57.1875 51.9805 56.8066C50.1055 55.8691 49.168 54.7412 49.168 53.4229C49.168 51.5479 50.9697 49.6436 54.5732 47.71L64.0215 42.6123C69.6172 39.624 73.0742 37.4561 74.3926 36.1084C75.7109 34.7607 76.3701 33.6621 76.3701 32.8125C76.3701 31.9336 76.1943 31.1279 75.8428 30.3955C75.5205 29.6631 75.0664 29.0039 74.4805 28.418C73.2207 27.1582 71.873 26.5283 70.4375 26.5283C67.4492 26.5283 63.8457 26.7627 59.627 27.2314L54.2656 36.6797C47.4102 49.1309 42.752 60.3223 40.291 70.2539C39.2949 74.1211 35.5303 76.0547 28.9971 76.0547C23.6064 76.0547 20.1641 74.7949 18.6699 72.2754ZM273.025 50.918C273.025 55.2246 274.373 57.3779 277.068 57.3779C278.943 57.3779 282.181 55.7373 286.78 52.4561C290.94 49.3799 293.416 47.4463 294.207 46.6553C296.023 45.1318 297.928 44.3701 299.92 44.3701C300.77 44.3701 301.487 44.6631 302.073 45.249C302.688 45.8057 302.996 46.6553 302.996 47.7979C302.996 48.9404 302.718 49.9805 302.161 50.918C301.604 51.8555 300.887 52.8223 300.008 53.8184C299.158 54.8145 298.089 55.9277 296.8 57.1582C295.54 58.3887 294.09 59.6924 292.449 61.0693C290.809 62.417 289.007 63.7646 287.044 65.1123C285.11 66.46 283.104 67.6758 281.023 68.7598C276.336 71.1621 272.103 72.3633 268.323 72.3633C263.987 72.3633 261.043 70.4004 259.49 66.4746C258.582 64.2188 258.128 61.5088 258.128 58.3447L245.34 67.002C236.58 73.1543 231.365 76.4209 229.695 76.8018C228.846 77.0068 227.981 77.1094 227.103 77.1094C226.253 77.1094 225.447 77.0215 224.686 76.8457C223.924 76.6992 223.25 76.4355 222.664 76.0547C221.316 75.2637 220.643 74.0918 220.643 72.5391C220.643 71.9238 221.053 70.4297 221.873 68.0566L225.652 57.6855C226.824 54.3457 227.41 52.3389 227.41 51.665C227.41 51.4307 227.264 51.3135 226.971 51.3135C226.678 51.3135 226.136 51.6211 225.345 52.2363C224.554 52.8516 223.602 53.6426 222.488 54.6094L212.029 63.75L206.536 68.3203C200.911 72.8027 196.326 75.0439 192.781 75.0439C191.111 75.0439 189.427 74.2969 187.728 72.8027C185.882 71.2207 184.959 69.3164 184.959 67.0898C184.959 64.8633 185.179 62.4316 185.618 59.7949C186.028 57.1582 186.629 54.624 187.42 52.1924C188.211 49.7314 189.192 47.4316 190.364 45.293C191.536 43.125 192.869 41.25 194.363 39.668C197.586 36.2109 201.38 34.4824 205.745 34.4824C210.14 34.4824 212.337 35.7715 212.337 38.3496C212.337 39.4629 211.736 41.1621 210.535 43.4473C207.986 48.4863 206.712 51.2109 206.712 51.6211C206.712 52.002 206.829 52.3096 207.063 52.5439C207.327 52.749 207.605 52.8516 207.898 52.8516C208.514 52.8516 209.393 52.3535 210.535 51.3574C218.064 44.7656 222.796 40.6787 224.729 39.0967C226.692 37.5146 228.582 36.123 230.398 34.9219C234.559 32.1973 237.869 30.835 240.33 30.835C242.352 30.835 243.992 31.1572 245.252 31.8018C247.449 32.9443 248.548 34.2334 248.548 35.6689C248.548 37.1045 248.343 38.7305 247.933 40.5469C247.552 42.3633 247.127 44.1211 246.658 45.8203L245.34 50.3027C244.93 51.5918 244.725 52.5879 244.725 53.291C244.725 53.9648 245.018 54.3018 245.604 54.3018C247.01 54.3018 249.808 52.3096 253.997 48.3252L258.26 44.3262C263.152 39.9316 266.858 37.7344 269.378 37.7344C270.579 37.7344 271.648 38.2031 272.586 39.1406C274.227 40.7812 275.047 42.2168 275.047 43.4473C275.047 44.1211 274.812 45.0293 274.344 46.1719C273.465 48.3105 273.025 49.8926 273.025 50.918Z" fill="#2870FC"/>
<path d="M130.599 24.1992C129.749 24.9023 128.826 25.4883 127.83 25.957C126.834 26.3965 125.721 26.6162 124.49 26.6162C123.26 26.6162 122.073 26.4111 120.931 26.001C119.788 25.5908 118.792 25.0195 117.942 24.2871C116.097 22.7051 115.174 20.6836 115.174 18.2227C115.174 14.4434 118.338 11.6309 124.666 9.78516C126.805 9.14062 128.562 8.81836 129.939 8.81836C131.316 8.81836 132.342 8.97949 133.016 9.30176C133.719 9.59473 134.29 9.99023 134.729 10.4883C135.608 11.4844 136.048 12.5098 136.048 13.5645C136.048 14.5898 135.916 15.5273 135.652 16.377C135.418 17.2266 135.066 18.1055 134.598 19.0137C134.129 19.9219 133.558 20.8301 132.884 21.7383C132.21 22.6465 131.448 23.4668 130.599 24.1992ZM119.524 72.583C117.298 73.7256 115.13 74.6338 113.021 75.3076C110.911 76.0107 108.831 76.3623 106.78 76.3623C104.759 76.3623 102.649 75.8789 100.452 74.9121C98.2842 73.916 96.3506 72.5977 94.6514 70.957C90.8721 67.2949 88.9824 63.2227 88.9824 58.7402C88.9824 54.6094 90.2129 50.4199 92.6738 46.1719C94.9297 42.334 97.8008 39.1113 101.287 36.5039C104.773 33.8965 108.011 32.5928 110.999 32.5928C115.276 32.5928 117.562 33.7939 117.854 36.1963C117.942 36.9287 117.986 37.7783 117.986 38.7451C117.986 39.7119 117.752 40.8252 117.283 42.085C116.844 43.3154 116.258 44.5605 115.525 45.8203C114.822 47.0508 114.031 48.2666 113.152 49.4678C112.303 50.6396 111.482 51.709 110.691 52.6758C109.168 54.5215 107.952 55.8545 107.044 56.6748C107.044 57.6709 107.791 58.6963 109.285 59.751C110.691 60.7471 111.878 61.2451 112.845 61.2451C113.841 61.2451 114.998 61.0107 116.316 60.542C117.664 60.0732 119.041 59.4434 120.447 58.6523C121.883 57.8613 123.333 56.9531 124.798 55.9277C126.292 54.9023 127.757 53.8477 129.192 52.7637L137.234 46.4795C140.428 44.165 143.021 43.0078 145.013 43.0078C145.804 43.0078 146.404 43.3008 146.814 43.8867C147.254 44.4434 147.474 45.1025 147.474 45.8643C147.474 46.626 147.093 47.6807 146.331 49.0283C145.569 50.3467 144.515 51.8115 143.167 53.4229C141.849 55.0342 140.296 56.7188 138.509 58.4766C136.722 60.2344 134.788 61.9629 132.708 63.6621C130.628 65.3613 128.46 66.9873 126.204 68.54C123.978 70.0635 121.751 71.4111 119.524 72.583Z" fill="#E40A0A"/>
<path d="M134.949 60.498C134.393 60.498 133.851 60.3662 133.323 60.1025C132.767 59.8389 132.254 59.4141 131.785 58.8281C130.76 57.5391 130.247 55.7812 130.247 53.5547C130.247 51.1816 131.668 48.2227 134.51 44.6777C137.264 41.25 140.472 38.291 144.134 35.8008C148.06 33.1055 151.429 31.7578 154.241 31.7578C156.731 31.7578 158.416 32.4609 159.295 33.8672L159.91 34.834C160.379 35.5664 160.848 35.9326 161.316 35.9326C161.785 35.9326 162.518 35.8887 163.514 35.8008L169.754 35.3613C170.721 35.2734 171.482 35.2295 172.039 35.2295C172.596 35.2295 173.226 35.4346 173.929 35.8447C174.661 36.2256 175.306 36.7383 175.862 37.3828C177.093 38.8477 177.708 40.459 177.708 42.2168C177.708 44.0332 175.701 46.8896 171.688 50.7861L168.787 53.6865C166.707 55.8252 165.667 57.1729 165.667 57.7295C165.667 58.2861 165.931 58.7842 166.458 59.2236C166.985 59.6338 167.557 59.8389 168.172 59.8389C168.787 59.8389 169.476 59.6777 170.237 59.3555C171.028 59.0039 171.995 58.5059 173.138 57.8613C174.28 57.1875 175.584 56.3818 177.049 55.4443C181.062 52.8076 183.743 50.9912 185.091 49.9951L188.738 47.4023C191.229 45.6445 193.001 44.7656 194.056 44.7656C195.11 44.7656 195.975 45 196.648 45.4688C197.322 45.9082 197.659 46.6846 197.659 47.7979C197.659 48.9111 197.088 50.4053 195.945 52.2803C194.803 54.1553 193.558 55.7812 192.21 57.1582C190.892 58.5352 189.603 59.8096 188.343 60.9814C187.083 62.1533 185.589 63.4277 183.86 64.8047C182.161 66.1523 180.271 67.5293 178.191 68.9355C176.111 70.3125 173.914 71.5576 171.6 72.6709C166.355 75.2197 161.536 76.4941 157.142 76.4941C150.726 76.4941 146.814 74.8389 145.408 71.5283C144.969 70.5322 144.749 69.4189 144.749 68.1885C144.749 66.958 144.983 65.6396 145.452 64.2334C145.921 62.7979 146.536 61.377 147.298 59.9707C148.821 57.1875 150.623 54.7266 152.703 52.5879C154.461 50.7422 155.34 49.6436 155.34 49.292C155.34 48.7354 155.018 48.3838 154.373 48.2373C153.758 48.0908 152.835 48.0176 151.604 48.0176C151.077 48.0176 149.949 48.7793 148.221 50.3027L143.914 54.2578C139.344 58.418 136.355 60.498 134.949 60.498Z" fill="#FFB800"/>
<path d="M370.54 41.9971C371.478 41.9971 371.946 42.7881 371.946 44.3701C371.946 47.0947 370.042 50.625 366.233 54.9609L363.729 57.5098C356.141 65.0977 348.992 70.1514 342.283 72.6709C338.123 74.2236 335.135 74.1504 333.318 72.4512C331.824 71.0156 330.638 68.7012 329.759 65.5078L328.704 61.6846L319.344 67.4414L313.938 70.5176C307.493 74.0332 302.659 75.791 299.437 75.791C295.306 75.791 291.863 74.1943 289.109 71.001C286.473 67.9834 285.154 64.4824 285.154 60.498C285.154 56.5723 286.722 53.0713 289.856 49.9951C294.339 45.6006 301.414 41.5723 311.082 37.9102C320.223 34.4824 327.605 32.7686 333.23 32.7686C335.135 32.7686 336.087 33.7061 336.087 35.5811C336.087 36.8701 335.838 37.8369 335.34 38.4814C334.842 39.126 333.816 39.7852 332.264 40.459L326.727 42.832C318.523 46.2598 312.518 49.8193 308.709 53.5107C307.625 54.5361 307.083 55.5322 307.083 56.499C307.083 57.4658 307.859 57.9492 309.412 57.9492C310.936 57.9492 314.48 56.3086 320.047 53.0273L323.694 50.874C329.349 47.4756 334.08 45.7764 337.889 45.7764C341.111 45.7764 343.25 47.1973 344.305 50.0391C344.568 50.8008 344.817 51.5771 345.052 52.3682C345.286 53.1299 345.521 53.8184 345.755 54.4336C346.282 55.8691 346.751 56.5869 347.161 56.5869C347.601 56.5869 348.216 56.3818 349.007 55.9717C349.798 55.5322 350.662 54.9902 351.6 54.3457C352.566 53.6719 353.562 52.9395 354.588 52.1484L359.905 47.8857C364.622 43.96 368.167 41.9971 370.54 41.9971Z" fill="#087B13"/>
<path d="M410.354 51.4014C410.354 54.0674 411.131 55.4004 412.684 55.4004C416.492 55.4004 421.443 52.8223 427.537 47.666L428.724 46.6553C431.097 45.0732 433.016 44.2822 434.48 44.2822C435.975 44.2822 436.912 44.502 437.293 44.9414C437.703 45.3809 437.908 46.084 437.908 47.0508C437.908 49.2188 436.81 51.5186 434.612 53.9502C431.331 57.9346 426.834 61.7139 421.121 65.2881C414.5 69.4482 408.567 71.5283 403.323 71.5283C399.661 71.5283 397.361 69.4922 396.424 65.4199C396.16 64.3652 395.97 63.3545 395.853 62.3877C395.56 60.0439 395.252 58.7402 394.93 58.4766C394.607 58.2129 393.963 58.2422 392.996 58.5645C392.059 58.8574 390.931 59.3701 389.612 60.1025C388.323 60.8057 386.888 61.6699 385.306 62.6953C376.927 68.2617 372.107 71.4404 370.848 72.2314C367.83 74.1064 365.794 75.0439 364.739 75.0439C363.685 75.0439 362.645 74.8242 361.619 74.3848C360.623 73.9453 359.744 73.3887 358.982 72.7148C357.4 71.2207 356.609 69.6973 356.609 68.1445C356.609 59.2676 358.543 51.5039 362.41 44.8535C364.988 40.3711 368.152 37.2656 371.902 35.5371C373.807 34.6289 375.857 34.1748 378.055 34.1748C382.068 34.1748 384.075 35.4932 384.075 38.1299C384.075 39.7412 383.123 42.3779 381.219 46.04L379.9 48.6328C378.963 50.4199 378.509 51.4307 378.538 51.665C378.714 52.5439 379.109 52.9834 379.725 52.9834C380.398 52.9834 381.395 52.4854 382.713 51.4893L390.799 45.4688L394.842 42.6562C399.5 39.6094 402.928 38.0859 405.125 38.0859C406.297 38.0859 407.366 38.5547 408.333 39.4922C410.12 41.1914 411.014 42.6709 411.014 43.9307C411.014 44.3408 410.97 44.8389 410.882 45.4248C410.823 46.0107 410.75 46.6406 410.662 47.3145L410.486 49.3799C410.398 50.083 410.354 50.7568 410.354 51.4014Z" fill="#E40A0A"/>
</g>
<defs>
<filter id="filter0_d" x="0.714844" y="0.818359" width="452.193" height="98.291" filterUnits="userSpaceOnUse" color-interpolation-filters="sRGB">
<feFlood flood-opacity="0" result="BackgroundImageFix"/>
<feColorMatrix in="SourceAlpha" type="matrix" values="0 0 0 0 0 0 0 0 0 0 0 0 0 0 0 0 0 0 127 0"/>
<feOffset dy="7"/>
<feGaussianBlur stdDeviation="7.5"/>
<feColorMatrix type="matrix" values="0 0 0 0 0 0 0 0 0 0 0 0 0 0 0 0 0 0 0.25 0"/>
<feBlend mode="normal" in2="BackgroundImageFix" result="effect1_dropShadow"/>
<feBlend mode="normal" in="SourceGraphic" in2="effect1_dropShadow" result="shape"/>
</filter>
</defs>
</svg>
