<svg width="214" height="76" viewBox="0 0 214 76" fill="none" xmlns="http://www.w3.org/2000/svg">
<g filter="url(#filter0_d)">
<path d="M27.1688 8.584C31.0514 8.584 34.1874 9.58667 36.5768 11.592C38.9661 13.5547 40.1608 16.3707 40.1608 20.04C40.1608 28.4027 34.7208 32.648 23.8408 32.776L20.0008 32.84V53H15.0088L15.2008 9.352C17.8461 8.84 21.8354 8.584 27.1688 8.584ZM26.2728 12.744C23.0301 12.744 20.9394 12.8293 20.0008 13V28.872L23.9688 28.808C31.3501 28.68 35.0408 25.864 35.0408 20.36C35.0408 15.2827 32.1181 12.744 26.2728 12.744ZM91.9603 24.2C91.9603 26.4613 91.7896 28.36 91.4483 29.896H91.8323C92.4723 27.464 93.5389 25.5653 95.0323 24.2C96.5256 22.8347 98.3816 22.152 100.6 22.152C105.848 22.152 108.472 24.7333 108.472 29.896H108.856C110.179 24.7333 113.123 22.152 117.688 22.152C121.102 22.152 123.363 22.9627 124.472 24.584C125.582 26.1627 126.136 28.68 126.136 32.136C126.136 32.3067 126.094 34.4613 126.008 38.6C125.966 42.696 125.944 45.384 125.944 46.664C125.944 47.944 126.072 48.8613 126.328 49.416C126.627 49.9707 127.544 50.248 129.08 50.248L129.208 53.128C128.611 53.384 127.736 53.512 126.584 53.512C124.536 53.512 123.128 53.0427 122.36 52.104C121.635 51.1653 121.272 49.672 121.272 47.624C121.272 47.5387 121.315 45.192 121.4 40.584C121.486 35.9333 121.528 33.416 121.528 33.032C121.528 30.6427 121.272 28.8507 120.76 27.656C120.248 26.4187 119.032 25.8 117.112 25.8C111.736 25.8 109.048 31.7307 109.048 43.592V53H104.632V34.184C104.632 30.3867 104.312 28.0827 103.672 27.272C102.819 26.2907 101.603 25.8 100.024 25.8C94.5629 25.8 91.8323 31.9013 91.8323 44.104V53H87.4163V22.92L91.9603 22.344V24.2Z" fill="#2870FC"/>
<path d="M52.6048 53.512C50.6421 53.512 49.2768 53.0427 48.5088 52.104C47.7408 51.1653 47.3568 49.6293 47.3568 47.496V22.92H51.9648V44.872C51.9648 47.1333 52.1354 48.6053 52.4768 49.288C52.8181 49.928 53.7994 50.248 55.4208 50.248L55.5488 53.064C54.5674 53.3627 53.5861 53.512 52.6048 53.512ZM46.9088 12.872C46.9088 10.8667 47.8901 9.864 49.8528 9.864C51.6448 9.864 52.5408 10.8453 52.5408 12.808C52.5408 14.728 51.6021 15.688 49.7248 15.688C47.8474 15.688 46.9088 14.7493 46.9088 12.872Z" fill="#E40A0A"/>
<path d="M67.4318 22.344C68.2851 22.6853 68.7118 23.7947 68.7118 25.672C68.7118 27.5067 68.5624 29.2133 68.2638 30.792H68.6478C69.5864 27.7627 70.6744 25.5653 71.9118 24.2C73.1491 22.8347 75.0904 22.152 77.7358 22.152L79.7198 22.408L79.1438 26.824C78.5891 26.696 77.9064 26.632 77.0958 26.632C75.4318 26.632 74.0024 27.1867 72.8078 28.296C71.6558 29.3627 70.8024 30.8133 70.2478 32.648C69.1811 35.9333 68.6478 39.624 68.6478 43.72V53H64.2318V32.328C64.2318 28.0187 63.9971 24.84 63.5278 22.792L67.4318 22.344Z" fill="#FFB800"/>
<path d="M155.516 31.176V26.504C154.279 25.864 152.423 25.544 149.948 25.544C143.634 25.544 140.476 30.3013 140.476 39.816C140.476 46.7707 142.588 50.248 146.812 50.248C148.604 50.248 150.098 49.6507 151.292 48.456C152.53 47.2187 153.447 45.5547 154.044 43.464C155.026 39.8373 155.516 35.7413 155.516 31.176ZM146.364 53.768C142.652 53.768 139.943 52.488 138.236 49.928C136.53 47.368 135.676 43.7413 135.676 39.048C135.676 34.312 136.871 30.3227 139.26 27.08C141.692 23.7947 145.255 22.152 149.948 22.152C151.612 22.152 153.255 22.3227 154.876 22.664C156.54 23.0053 158.183 23.496 159.804 24.136V40.392C159.804 44.744 160.188 47.496 160.956 48.648C161.682 49.8 162.898 50.376 164.604 50.376L164.732 53.256C164.05 53.4267 163.196 53.512 162.172 53.512C159.911 53.512 158.29 52.7227 157.308 51.144C156.583 49.992 156.22 48.6267 156.22 47.048C156.22 46.536 156.263 45.9813 156.348 45.384H155.964C155.239 47.944 154.066 49.992 152.444 51.528C150.866 53.0213 148.839 53.768 146.364 53.768Z" fill="#087B13"/>
<path d="M176.46 24.2C176.46 26.4613 176.29 28.36 175.948 29.896H176.332C176.93 27.5067 178.082 25.6293 179.788 24.264C181.538 22.856 183.65 22.152 186.124 22.152C189.495 22.152 191.82 23.0053 193.1 24.712C194.38 26.376 195.02 28.8933 195.02 32.264C195.02 32.392 194.978 34.568 194.892 38.792C194.85 43.016 194.828 45.704 194.828 46.856C194.828 48.008 194.956 48.8613 195.212 49.416C195.511 49.9707 196.428 50.248 197.964 50.248L198.092 53.128C197.495 53.384 196.62 53.512 195.468 53.512C193.42 53.512 192.012 53.0427 191.244 52.104C190.519 51.1653 190.156 49.672 190.156 47.624C190.156 47.5387 190.199 45.2347 190.284 40.712C190.37 36.1893 190.412 33.8427 190.412 33.672C190.412 31.1973 190.092 29.2773 189.452 27.912C188.812 26.504 187.532 25.8 185.612 25.8C183.735 25.8 182.156 26.3973 180.876 27.592C179.639 28.7867 178.7 30.344 178.06 32.264C176.908 35.976 176.332 39.9227 176.332 44.104V53H171.916V22.92L176.46 22.344V24.2Z" fill="#E40A0A"/>
</g>
<defs>
<filter id="filter0_d" x="0.00878906" y="0.583984" width="213.083" height="75.184" filterUnits="userSpaceOnUse" color-interpolation-filters="sRGB">
<feFlood flood-opacity="0" result="BackgroundImageFix"/>
<feColorMatrix in="SourceAlpha" type="matrix" values="0 0 0 0 0 0 0 0 0 0 0 0 0 0 0 0 0 0 127 0"/>
<feOffset dy="7"/>
<feGaussianBlur stdDeviation="7.5"/>
<feColorMatrix type="matrix" values="0 0 0 0 0 0 0 0 0 0 0 0 0 0 0 0 0 0 0.25 0"/>
<feBlend mode="normal" in2="BackgroundImageFix" result="effect1_dropShadow"/>
<feBlend mode="normal" in="SourceGraphic" in2="effect1_dropShadow" result="shape"/>
</filter>
</defs>
</svg>
