<svg width="413" height="102" viewBox="0 0 413 102" fill="none" xmlns="http://www.w3.org/2000/svg">
<path d="M27.5047 0.0639992C36.2407 0.0639992 43.2967 2.32 48.6727 6.832C54.0487 11.248 56.7367 17.584 56.7367 25.84C56.7367 44.656 44.4967 54.208 20.0167 54.496L11.3767 54.64V100H0.144688L0.576688 1.79199C6.52869 0.639997 15.5047 0.0639992 27.5047 0.0639992ZM25.4887 9.424C18.1927 9.424 13.4887 9.616 11.3767 10V45.712L20.3047 45.568C36.9127 45.28 45.2167 38.944 45.2167 26.56C45.2167 15.136 38.6407 9.424 25.4887 9.424ZM173.286 35.2C173.286 40.288 172.902 44.56 172.134 48.016H172.998C174.438 42.544 176.838 38.272 180.198 35.2C183.558 32.128 187.734 30.592 192.726 30.592C204.534 30.592 210.438 36.4 210.438 48.016H211.302C214.278 36.4 220.902 30.592 231.174 30.592C238.854 30.592 243.942 32.416 246.438 36.064C248.934 39.616 250.182 45.28 250.182 53.056C250.182 53.44 250.086 58.288 249.894 67.6C249.798 76.816 249.75 82.864 249.75 85.744C249.75 88.624 250.038 90.688 250.614 91.936C251.286 93.184 253.35 93.808 256.806 93.808L257.094 100.288C255.75 100.864 253.782 101.152 251.19 101.152C246.582 101.152 243.414 100.096 241.686 97.984C240.054 95.872 239.238 92.512 239.238 87.904C239.238 87.712 239.334 82.432 239.526 72.064C239.718 61.6 239.814 55.936 239.814 55.072C239.814 49.696 239.238 45.664 238.086 42.976C236.934 40.192 234.198 38.8 229.878 38.8C217.782 38.8 211.734 52.144 211.734 78.832V100H201.798V57.664C201.798 49.12 201.078 43.936 199.638 42.112C197.718 39.904 194.982 38.8 191.43 38.8C179.142 38.8 172.998 52.528 172.998 79.984V100H163.062V32.32L173.286 31.024V35.2Z" fill="#2870FC"/>
<path d="M84.7357 101.152C80.3197 101.152 77.2477 100.096 75.5197 97.984C73.7917 95.872 72.9277 92.416 72.9277 87.616V32.32H83.2957V81.712C83.2957 86.8 83.6797 90.112 84.4477 91.648C85.2157 93.088 87.4237 93.808 91.0717 93.808L91.3597 100.144C89.1517 100.816 86.9437 101.152 84.7357 101.152ZM71.9197 9.712C71.9197 5.2 74.1277 2.944 78.5437 2.944C82.5757 2.944 84.5917 5.152 84.5917 9.568C84.5917 13.888 82.4797 16.048 78.2557 16.048C74.0317 16.048 71.9197 13.936 71.9197 9.712Z" fill="#E40A0A"/>
<path d="M118.096 31.024C120.016 31.792 120.976 34.288 120.976 38.512C120.976 42.64 120.64 46.48 119.968 50.032H120.832C122.944 43.216 125.392 38.272 128.176 35.2C130.96 32.128 135.328 30.592 141.28 30.592L145.744 31.168L144.448 41.104C143.2 40.816 141.664 40.672 139.84 40.672C136.096 40.672 132.88 41.92 130.192 44.416C127.6 46.816 125.68 50.08 124.432 54.208C122.032 61.6 120.832 69.904 120.832 79.12V100H110.896V53.488C110.896 43.792 110.368 36.64 109.312 32.032L118.096 31.024Z" fill="#FFB800"/>
<path d="M316.287 50.896V40.384C313.503 38.944 309.327 38.224 303.759 38.224C289.551 38.224 282.447 48.928 282.447 70.336C282.447 85.984 287.199 93.808 296.703 93.808C300.735 93.808 304.095 92.464 306.783 89.776C309.567 86.992 311.631 83.248 312.975 78.544C315.183 70.384 316.287 61.168 316.287 50.896ZM295.695 101.728C287.343 101.728 281.247 98.848 277.407 93.088C273.567 87.328 271.647 79.168 271.647 68.608C271.647 57.952 274.335 48.976 279.711 41.68C285.183 34.288 293.199 30.592 303.759 30.592C307.503 30.592 311.199 30.976 314.847 31.744C318.591 32.512 322.287 33.616 325.935 35.056V71.632C325.935 81.424 326.799 87.616 328.527 90.208C330.159 92.8 332.895 94.096 336.735 94.096L337.023 100.576C335.487 100.96 333.567 101.152 331.263 101.152C326.175 101.152 322.527 99.376 320.319 95.824C318.687 93.232 317.871 90.16 317.871 86.608C317.871 85.456 317.967 84.208 318.159 82.864H317.295C315.663 88.624 313.023 93.232 309.375 96.688C305.823 100.048 301.263 101.728 295.695 101.728Z" fill="#087B13"/>
<path d="M363.411 35.2C363.411 40.288 363.027 44.56 362.259 48.016H363.123C364.467 42.64 367.059 38.416 370.899 35.344C374.835 32.176 379.587 30.592 385.155 30.592C392.739 30.592 397.971 32.512 400.851 36.352C403.731 40.096 405.171 45.76 405.171 53.344C405.171 53.632 405.075 58.528 404.883 68.032C404.787 77.536 404.739 83.584 404.739 86.176C404.739 88.768 405.027 90.688 405.603 91.936C406.275 93.184 408.339 93.808 411.795 93.808L412.083 100.288C410.739 100.864 408.771 101.152 406.179 101.152C401.571 101.152 398.403 100.096 396.675 97.984C395.043 95.872 394.227 92.512 394.227 87.904C394.227 87.712 394.323 82.528 394.515 72.352C394.707 62.176 394.803 56.896 394.803 56.512C394.803 50.944 394.083 46.624 392.643 43.552C391.203 40.384 388.323 38.8 384.003 38.8C379.779 38.8 376.227 40.144 373.347 42.832C370.563 45.52 368.451 49.024 367.011 53.344C364.419 61.696 363.123 70.576 363.123 79.984V100H353.187V32.32L363.411 31.024V35.2Z" fill="#E40A0A"/>
</svg>
